<svg id="Layer_1" data-name="Layer 1" xmlns="http://www.w3.org/2000/svg" viewBox="0 0 522.15 582.53"><title>xformation_logo</title><path d="M341.37,648.19c-4.28.11-8.58-.21-12.9-.37-2.16-.12-4.34-.14-6.5-.35l-6.52-.61-6.55-.63-6.55-.94-6.59-1-1.65-.25-1.68-.33-3.37-.67-6.77-1.36-6.73-1.7c-4.52-1-9-2.51-13.45-3.88-2.26-.65-4.46-1.48-6.68-2.28l-6.67-2.44-6.57-2.75c-2.19-.94-4.41-1.83-6.55-2.91l-6.48-3.13-1.62-.78L226,621l-3.18-1.73c-2.11-1.18-4.27-2.28-6.34-3.54l-6.23-3.8c-2.1-1.23-4.11-2.62-6.13-4s-4-2.74-6-4.16-3.93-3-5.89-4.44l-2.94-2.24-2.85-2.37-5.7-4.77-5.49-5-2.75-2.54-2.63-2.66-5.27-5.35-5-5.61L157,565.91,154.57,563c-1.58-2-3.19-3.91-4.76-5.89L145.3,551c-.74-1-1.52-2-2.23-3.09L141,544.7c-1.4-2.13-2.85-4.22-4.2-6.39-2.61-4.39-5.34-8.73-7.68-13.31a227.74,227.74,0,0,1-12.82-28.19l-2.65-7.34c-.85-2.46-1.56-5-2.34-7.46l-1.14-3.74c-.37-1.26-.67-2.53-1-3.8l-1.92-7.62-1.57-7.71c-.26-1.29-.53-2.58-.76-3.87l-.6-3.91c-.38-2.6-.82-5.2-1.13-7.82l-.8-7.89c-.31-2.62-.39-5.27-.53-7.91l-.2-4c-.06-1.33-.13-2.65-.11-4v-10l.1-2,.19-4,.21-4,.12-2,.19-2,.81-8c.12-1.32.32-2.64.53-4l.6-3.95c.43-2.64.74-5.23,1.35-7.95a184.13,184.13,0,0,1,9-31.8,189.34,189.34,0,0,1,116-112.06,188.55,188.55,0,0,1,65.36-10c2.76.07,5.51.27,8.26.41l2.06.12,2.05.21,4.1.44c1.37.16,2.74.26,4.09.47l4.07.64,4.06.64c1.35.22,2.76.56,4.14.83a156,156,0,0,1,32.22,10.4,154.24,154.24,0,0,1,84.72,97.15,151.6,151.6,0,0,1,4.73,63.73c-.42,2.62-.8,5.2-1.29,7.82s-1.06,5.34-1.81,8L446.35,413l-1.23,3.88c-.79,2.59-1.83,5.1-2.77,7.63a126.67,126.67,0,0,1-15.69,28,125.52,125.52,0,0,1-62.3,44.43,123.82,123.82,0,0,1-14.64,3.66,126.63,126.63,0,0,1-14.82,1.87,125.32,125.32,0,0,1-14.76,0l-3.65-.23-3.63-.4c-2.42-.23-4.8-.66-7.17-1.05l-1.79-.3-1.83-.4c-1.21-.27-2.43-.51-3.64-.81-2.4-.65-4.8-1.26-7.15-2.08s-4.66-1.65-6.95-2.53-4.53-1.92-6.7-3.06a96.26,96.26,0,0,1-12.53-7.42A100.75,100.75,0,0,1,230,441.25a98.92,98.92,0,0,1-7.27-51.55c.21-2.11.64-4.17,1-6.23.18-1,.45-2.12.67-3.17s.5-2.1.79-3.14c.54-2.08,1.24-4.12,1.92-6.14s1.51-4,2.41-5.92a80.5,80.5,0,0,1,52.71-44.74,77,77,0,0,1,10.77-2c.9-.13,1.79-.22,2.69-.28l2.68-.19c1.78,0,3.55-.14,5.31-.06a80.12,80.12,0,0,1,10.36.86l2.51.44c.84.15,1.66.29,2.52.53l5,1.3a68.43,68.43,0,0,1,18,8.78,66.77,66.77,0,0,1,13.62,12.95,68.2,68.2,0,0,1,8.78,15.17c.46,1.34.93,2.66,1.39,4,.21.66.46,1.31.65,2s.32,1.33.49,2c.31,1.33.65,2.64.91,3.94s.37,2.64.55,3.94l.25,1.93c0,.65.05,1.3.08,1.94,0,1.28.09,2.55.13,3.8s-.13,2.5-.2,3.73c0,.61-.09,1.22-.13,1.82a12,12,0,0,1-.2,1.8q-.3,1.77-.6,3.51l-.3,1.72c-.12.57-.3,1.15-.45,1.72l-.94,3.37c-.4,1.09-.83,2.15-1.24,3.2l-.62,1.56-.75,1.48L362,408.1c-.57.91-1.15,1.79-1.72,2.67-.29.43-.57.86-.85,1.29s-.63.81-.94,1.21l-1.89,2.33c-.62.77-1.35,1.42-2,2.12s-1.31,1.37-2,2l-2.11,1.75a45,45,0,0,1-16.66,8.46,30.5,30.5,0,0,1-3.78.81l-1.77.31c-.58.06-1.16.09-1.71.13-1.12.07-2.18.17-3.18.17l-2.85-.14a14.69,14.69,0,0,1-2.49-.28c-.77-.13-1.49-.27-2.14-.41a14.76,14.76,0,0,1-3.22-1c-1.68-.71-2.45-1.33-2.36-1.84s1-.91,2.7-1.23c.84-.16,1.86-.25,3-.53l1.92-.34a17.86,17.86,0,0,0,2.15-.47l2.37-.57c.83-.24,1.67-.56,2.56-.83l1.36-.45,1.37-.59a24.86,24.86,0,0,0,2.86-1.3,39.26,39.26,0,0,0,11.65-8.8l1.36-1.54c.46-.51.83-1.12,1.26-1.68s.88-1.12,1.24-1.75l1.11-1.88c.19-.32.4-.62.56-1l.47-1,1-2.05c.25-.72.51-1.45.77-2.18.14-.36.27-.73.4-1.1l.28-1.15c.19-.77.39-1.54.59-2.32l.35-2.42c.05-.41.14-.8.17-1.22l.06-1.31c0-.86.09-1.74.14-2.62a8.45,8.45,0,0,0,0-1.33c0-.44,0-.89-.07-1.34-.06-.89-.05-1.79-.14-2.69l-.41-2.72-.19-1.37-.35-1.35c-.22-.91-.44-1.82-.67-2.74s-.64-1.79-1-2.7c-.15-.45-.31-.9-.47-1.36s-.41-.88-.61-1.32L347,365.74a49.5,49.5,0,0,0-7-9.8A42.49,42.49,0,0,0,318,343.47q-1.65-.27-3.3-.57a14.94,14.94,0,0,0-1.72-.22l-1.78-.17a55.78,55.78,0,0,0-7.2,0c-1.21,0-2.41.21-3.62.31l-1.81.28c-.61.08-1.21.18-1.81.32a51.87,51.87,0,0,0-7.16,1.92,53.49,53.49,0,0,0-24.77,17.57A51.76,51.76,0,0,0,257,376.7c-.5,1.24-.87,2.54-1.28,3.82s-.72,2.61-1,4c-.15.66-.29,1.33-.38,2s-.23,1.33-.31,2c-.13,1.44-.37,2.88-.41,4.34A66.92,66.92,0,0,0,285,454.26a62,62,0,0,0,8.27,4.34c1.42.68,2.91,1.17,4.37,1.75s3,1,4.51,1.38,3.07.75,4.61,1.11c.78.15,1.57.26,2.35.4l1.18.2,1.25.15c1.67.19,3.34.42,5,.49l2.53.17,2.53,0a90.55,90.55,0,0,0,10.14-.47,88.74,88.74,0,0,0,10.05-1.74,85.33,85.33,0,0,0,9.84-2.92A87.28,87.28,0,0,0,361.1,455a83.37,83.37,0,0,0,40.71-46.11c.53-1.69,1.19-3.33,1.61-5.06l.72-2.56.59-2.6c.45-1.72.65-3.51,1-5.26s.46-3.72.71-5.57a107.52,107.52,0,0,0-27.91-83.75A105.41,105.41,0,0,0,341.22,278a106.9,106.9,0,0,0-22-6.4c-1-.16-1.86-.37-2.86-.5l-3-.38-3-.39c-1-.14-2-.17-3-.26l-3-.24-1.5-.12-1.51,0c-2,0-4-.14-6-.14A136.07,136.07,0,0,0,167,359.72a129.49,129.49,0,0,0-6,22.62c-.41,1.87-.6,4-.89,5.94l-.41,3c-.14,1-.29,2-.34,3l-.51,6-.13,1.5c0,.5,0,1-.05,1.51l-.1,3-.11,3,0,1.5,0,1.5.1,6c0,1,.07,2,.14,3l.2,3c.14,2,.21,4,.49,5.95a175.12,175.12,0,0,0,33.43,86.08l3.42,4.55,3.62,4.37,1.8,2.18,1.91,2.09q1.91,2.07,3.8,4.16l4,3.95,2,2,2.08,1.87,4.12,3.74,4.29,3.5L226,550.5l2.21,1.64,4.41,3.28c1.5,1,3,2,4.54,3.05s3,2,4.58,2.94l4.64,2.8c1.54.93,3.17,1.71,4.74,2.58l2.37,1.27,1.18.64,1.21.57,4.83,2.29c1.59.81,3.25,1.44,4.88,2.13l4.89,2,5,1.77c1.65.59,3.28,1.22,5,1.68,3.35,1,6.64,2.09,10,2.84l5,1.25,5.06,1,2.52.5,1.25.25,1.31.19,5.22.74,5.19.75,5.19.47,5.15.49c1.71.17,3.43.17,5.13.26,3.42.11,6.81.4,10.18.29a223,223,0,0,0,78.3-13.68A226.62,226.62,0,0,0,487.13,536a233,233,0,0,0,27.16-26.48c2-2.41,4.09-4.75,6-7.2l5.68-7.41c1.82-2.52,3.54-5.1,5.32-7.63l1.32-1.9,1.22-2,2.44-3.92A230.82,230.82,0,0,0,552.9,447a252.79,252.79,0,0,0,11-34.09q.93-4.33,1.85-8.66l.47-2.15.38-2.16c.24-1.43.49-2.87.74-4.3.44-2.87.82-5.75,1.19-8.62l.45-4.31c.16-1.43.31-2.87.39-4.31a238.48,238.48,0,0,0,.19-34.22,262.79,262.79,0,0,0-13-65,289.08,289.08,0,0,0-26.37-57,297.33,297.33,0,0,0-34.81-46.9,282.75,282.75,0,0,0-79.59-61.58A263,263,0,0,0,342.88,89c-10.54-1.93-20.07-3-28.41-3.74s-15.47-1-21.31-1.39c-2.92-.13-5.5-.25-7.76-.45s-4.15-.33-5.71-.59c-3.12-.49-4.84-1.23-5-2.25s1.14-2.28,4-3.8a44.17,44.17,0,0,1,5.41-2.4c2.19-.79,4.76-1.66,7.7-2.52A161.55,161.55,0,0,1,314,67.39a207,207,0,0,1,31.14-1.66A233.7,233.7,0,0,1,384.27,70a257.36,257.36,0,0,1,45.22,13.17C461,95.5,494.77,115.94,525.71,145.7a325.83,325.83,0,0,1,77.57,116.54,303.7,303.7,0,0,1,18.84,77.3,284.45,284.45,0,0,1,1.23,42.14c-.05,1.79-.17,3.58-.3,5.38l-.39,5.39c-.35,3.59-.71,7.2-1.16,10.81-.25,1.8-.51,3.61-.76,5.42l-.39,2.71-.49,2.69q-1,5.37-2,10.78a299.75,299.75,0,0,1-12.55,42.82,281.7,281.7,0,0,1-19.84,41.25l-3,5-1.49,2.5-1.6,2.43c-2.15,3.23-4.27,6.5-6.49,9.71L566,538c-2.39,3.11-4.93,6.12-7.41,9.19a286.09,286.09,0,0,1-33.65,33.86,283.26,283.26,0,0,1-132.76,62.75A274.61,274.61,0,0,1,341.37,648.19Z" transform="translate(-101.49 -65.68)" fill="#f68520"/></svg>